# xmcd
#
# Track frame offsets:
#	150
#	26047
#	48769
#	70575
#	88921
#	117327
#	138304
#	158425
#	182120
#	203864
#	222048
#	245632
#	258532
#	273659
#
# Disc length: 3971 seconds
#
# Revision: 1
# Processed by: cddbd v1.5.2PL0 Copyright (c) Steve Scherf et al.
# Submitted via: audiograbber 1.83.01
#
DISCID=ca0f810e
DTITLE=Gaye Delorme - The Best of ...
DYEAR=1999
DGENRE=Blues
TTITLE0=Sailor, Sailor
TTITLE1=Hope That's Alright
TTITLE2=Downtown LA
TTITLE3=Can't Cross Here
TTITLE4=Thin Man
TTITLE5=Arizona
TTITLE6=Hoo Doo Trail
TTITLE7=Bahia
TTITLE8=Angelina
TTITLE9=Been Down So Long
TTITLE10=Joshua
TTITLE11=Vegas Moon
TTITLE12=With You Beside Me
TTITLE13=Tango Fortina
EXTD=
EXTT0=
EXTT1=
EXTT2=
EXTT3=
EXTT4=
EXTT5=
EXTT6=
EXTT7=
EXTT8=
EXTT9=
EXTT10=
EXTT11=
EXTT12=
EXTT13=
PLAYORDER=
